# xmcd CD database file
#
# Track frame offsets:
#	150
#	16985
#	34040
#	50987
#
# Disc length: 1167 seconds
#
# Revision: 0
# Processed by: cddbd v1.5PL3 Copyright (c) Steve Scherf et al.
# Submitted via: CDex 1.50
#
DISCID=2e048d04
DTITLE=真田さん(田中理恵) - 円盤皇女ワるきゅーレ 十二月の夜想曲 キャラクターソング「あなたの涙をいただくわ！」
DYEAR=2003
DGENRE=Anime
TTITLE0=あなたの涙をいただくわ！
TTITLE1=あなたの涙をいただくわ！(休日はレゲェで party mix)
TTITLE2=あなたの涙をいただくわ！(オリジナルカラオケ)
TTITLE3=ボーナストラック 真田さん脚本「ヴァルハラ日和」
EXTD=YEAR: 2003
EXTT0=
EXTT1=
EXTT2=
EXTT3=
PLAYORDER=
